<svg id="Layer_1" data-name="Layer 1" xmlns="http://www.w3.org/2000/svg" xmlns:xlink="http://www.w3.org/1999/xlink" viewBox="0 0 161.58 161.58"><defs><style>.cls-1{fill:url(#linear-gradient);}.cls-2{fill:#1d1d1b;}.cls-3,.cls-4{fill:#fff;}.cls-4{stroke:#000;stroke-miterlimit:10;}</style><linearGradient id="linear-gradient" x1="165.71" y1="75.22" x2="-0.14" y2="86.1" gradientUnits="userSpaceOnUse"><stop offset="0" stop-color="#af182c"/><stop offset="0.19" stop-color="#af182c"/><stop offset="0.43" stop-color="#802146"/><stop offset="0.84" stop-color="#283276"/></linearGradient></defs><circle class="cls-1" cx="80.79" cy="80.79" r="80.79"/><path class="cls-2" d="M297.9,451.05l3.86-4.83L311,434.67l11.2-14,9.65-12.07,3.18-4,1-1.25a3.17,3.17,0,0,0,.52-.64.24.24,0,0,1,.06-.08,6.23,6.23,0,0,1-1,.56l-2.45,1.4L330.67,406a3.78,3.78,0,0,0-1,.61l-3.86,4.83L316.58,423l-11.2,14-9.65,12.07-3.18,4-1,1.25a3.17,3.17,0,0,0-.52.64.47.47,0,0,1-.06.09,5,5,0,0,1,1-.56l2.45-1.41,2.45-1.42a4.39,4.39,0,0,0,1-.61Z" transform="translate(-202.5 -326)"/><path class="cls-2" d="M336.92,454.06,323,436.6q-2.13-2.69-4.27-5.35c-.1-.13-2.52,1.6-2.59,1.5l13.92,17.46,4.27,5.35c.11.13,2.52-1.6,2.6-1.5Z" transform="translate(-202.5 -326)"/><path class="cls-2" d="M306.65,419q-6.39-7.41-12.76-14.83c-.13-.16-2.49,1.62-2.6,1.5q6.39,7.41,12.76,14.83c.14.16,2.49-1.62,2.6-1.5Z" transform="translate(-202.5 -326)"/><path class="cls-3" d="M303.61,419.94l-12.75-14.83c-.14-.16-2.49,1.62-2.6,1.5Q294.65,414,301,421.44c.13.16,2.49-1.62,2.59-1.5Z" transform="translate(-202.5 -326)"/><path class="cls-3" d="M290.53,455.39l3.86-4.83L303.63,439l11.2-14,9.65-12.07,3.18-4,1-1.24a3.57,3.57,0,0,0,.51-.65s.05-.06.07-.08a2.15,2.15,0,0,1-.39.21l-.92.53-.92.53a1.43,1.43,0,0,0-.37.23l-3.86,4.83-9.24,11.55-11.2,14-9.65,12.07-3.18,4-1,1.25a3.23,3.23,0,0,0-.52.65s-.05.05-.07.08a2.15,2.15,0,0,1,.39-.21l.92-.53.92-.53c.1-.06.3-.13.37-.23Z" transform="translate(-202.5 -326)"/><path d="M245,430.89v-70h32.77a27.29,27.29,0,0,1,24,16.49,55.35,55.35,0,0,1-.89,45s-4.27,10.67-19.87,14.15a81.51,81.51,0,0,1-8.46.4c-5,0-15.53-2.2-15.53-2.2l-3-.48-5.28,9.33h23.41a55.75,55.75,0,0,0,9.79-.78,31.22,31.22,0,0,0,23.19-16.5c13.12-28,1-52.54,1-52.54a31.83,31.83,0,0,0-28-19.24H239.91l-.09,86.94,4.24-7Z" transform="translate(-202.5 -326)"/><path class="cls-3" d="M332.88,454q-7-8.73-13.92-17.47l-4.27-5.34c-.11-.13-2.52,1.6-2.6,1.5L326,450.14q2.13,2.69,4.27,5.35c.1.13,2.51-1.6,2.59-1.5Z" transform="translate(-202.5 -326)"/><path class="cls-4" d="M248.79,429.11V364h33.47s17-.15,24.51,15.34a47.3,47.3,0,0,1-.9,41.88s-4.36,9.92-20.3,13.15c0,0-3.53.38-8.65.38H254.4l0,5.9h22c6,0,10.09-.44,10.09-.44,17.34-2.41,23.68-15.35,23.68-15.35A55.21,55.21,0,0,0,311.23,376c-8.77-18.07-28.59-17.9-28.59-17.9H243.58v75.92l5.29,0Z" transform="translate(-202.5 -326)"/></svg>